<?xml version="1.0" standalone="no"?>
<!DOCTYPE svg PUBLIC "-//W3C//DTD SVG 20010904//EN"
 "http://www.w3.org/TR/2001/REC-SVG-20010904/DTD/svg10.dtd">
<svg version="1.0" xmlns="http://www.w3.org/2000/svg"
 width="189.000000pt" height="191.000000pt" viewBox="0 0 189.000000 191.000000"
 preserveAspectRatio="xMidYMid meet">

<g transform="translate(0.000000,191.000000) scale(0.100000,-0.100000)"
fill="#000000" stroke="none">
<path d="M0 955 l0 -955 945 0 945 0 0 955 0 955 -945 0 -945 0 0 -955z m1244
758 c149 -86 323 -187 386 -224 l115 -67 -3 -454 -2 -455 -43 -23 c-23 -13
-196 -113 -384 -222 -189 -109 -345 -198 -348 -198 -3 0 -96 53 -208 117 -111
64 -285 164 -387 222 l-185 106 -2 455 -3 455 128 72 c70 40 244 140 387 223
143 82 264 150 269 150 5 0 131 -71 280 -157z"/>
<path d="M774 1727 c-105 -62 -273 -159 -372 -217 l-182 -104 0 -436 0 -435
158 -90 c86 -49 251 -145 367 -212 115 -68 215 -123 220 -123 6 0 177 97 380
214 l370 214 0 433 0 433 -230 133 c-126 73 -277 159 -335 192 -58 34 -123 72
-145 85 l-40 24 -191 -111z m236 27 c0 -2 -9 0 -20 6 -11 6 -20 13 -20 16 0 2
9 0 20 -6 11 -6 20 -13 20 -16z m70 -40 c0 -2 -9 0 -20 6 -11 6 -20 13 -20 16
0 2 9 0 20 -6 11 -6 20 -13 20 -16z m-225 0 c-24 -18 -83 -50 -73 -39 10 10
81 54 88 54 3 0 -4 -7 -15 -15z m-85 -49 c0 -2 -10 -9 -22 -15 -22 -11 -22
-10 -4 4 21 17 26 19 26 11z m430 -21 c0 -2 -9 0 -20 6 -11 6 -20 13 -20 16 0
2 9 0 20 -6 11 -6 20 -13 20 -16z m-500 -19 c0 -2 -13 -11 -30 -20 -38 -19
-40 -11 -2 9 31 17 32 18 32 11z m-75 -43 c-16 -15 -125 -74 -125 -68 0 5 120
76 130 76 2 0 0 -4 -5 -8z m-135 -77 c0 -2 -10 -9 -22 -15 -22 -11 -22 -10 -4
4 21 17 26 19 26 11z m-50 -30 c0 -2 -13 -11 -30 -20 -38 -19 -40 -11 -2 9 31
17 32 18 32 11z m385 -5 c3 -5 1 -10 -4 -10 -6 0 -11 5 -11 10 0 6 2 10 4 10
3 0 8 -4 11 -10z m205 -20 c0 -11 6 -22 13 -24 6 -3 44 -14 83 -25 40 -12 94
-36 121 -54 38 -26 55 -32 76 -26 71 19 187 -45 212 -117 36 -107 -72 -209
-177 -167 -51 21 -88 83 -95 161 -3 36 -1 67 6 80 11 20 7 25 -35 52 -76 48
-197 80 -200 53 -1 -7 -2 -18 -3 -23 -1 -7 -27 -10 -68 -8 l-68 3 -1 58 -2 57
69 0 c63 0 69 -2 69 -20z m-660 -15 c0 -2 -10 -9 -22 -15 -22 -11 -22 -10 -4
4 21 17 26 19 26 11z m-64 -40 c-11 -8 -23 -15 -28 -15 -4 0 -8 -182 -8 -404
l0 -405 27 -19 c16 -10 79 -47 141 -81 61 -35 112 -65 112 -67 0 -6 -47 18
-177 93 l-113 65 0 409 0 408 28 15 c35 19 42 19 18 1z m524 -39 c0 -3 -4 -8
-10 -11 -5 -3 -10 -1 -10 4 0 6 5 11 10 11 6 0 10 -2 10 -4z m148 -72 c-9 -9
-21 -13 -27 -10 -20 13 -11 26 16 26 25 0 26 -1 11 -16z m-38 -9 c11 -13 8
-21 -20 -50 l-34 -35 -28 27 c-35 33 -35 39 0 57 35 20 66 20 82 1z m125 1
c19 -8 35 -19 35 -24 0 -4 -14 -21 -30 -37 l-30 -29 -38 35 -37 34 35 -38 34
-37 -35 -35 -35 -35 -34 35 -34 35 54 55 c30 30 60 55 67 55 8 0 29 -7 48 -14z
m-216 -66 l30 -30 -36 -36 -35 -36 -37 34 -36 33 34 -37 33 -36 -33 -31 c-19
-17 -37 -31 -40 -31 -3 0 -15 10 -27 23 l-22 23 28 45 c34 52 86 109 100 109
6 0 24 -14 41 -30z m306 0 l29 -30 -34 -35 -34 -35 -35 34 -34 34 29 31 c16
17 34 31 40 31 5 0 23 -14 39 -30z m-231 -76 l29 -35 -28 -29 c-36 -37 -44
-37 -80 0 l-29 30 34 35 c19 19 36 35 39 34 4 0 19 -16 35 -35z m156 1 c18
-19 32 -36 29 -37 -2 -2 -19 -16 -37 -32 l-32 -30 -35 34 -35 34 32 33 c18 18
35 33 38 33 3 0 21 -16 40 -35z m160 -49 c0 -14 -31 -46 -45 -46 -6 0 -24 14
-40 30 l-29 30 34 35 34 35 23 -37 c13 -21 23 -42 23 -47z m-392 -29 l32 -33
-35 -34 -35 -34 -35 34 -35 34 32 33 c18 18 35 33 38 33 3 0 20 -15 38 -33z
m150 0 l32 -33 -35 -34 c-34 -33 -35 -33 -56 -14 -41 37 -43 53 -13 85 15 16
31 29 34 29 3 0 20 -15 38 -33z m160 0 l32 -33 -35 -34 -35 -34 -35 34 -35 34
32 33 c18 18 35 33 38 33 3 0 20 -15 38 -33z m-457 -9 c16 -17 17 -24 7 -37
-15 -19 -78 -81 -83 -81 -2 0 8 30 21 66 13 37 24 69 24 70 0 10 15 2 31 -18z
m572 -25 c23 -61 9 -78 -33 -38 -16 16 -30 33 -30 39 0 11 30 46 39 46 4 0 14
-21 24 -47z m-507 -112 l-36 -35 -37 34 -38 35 34 -37 35 -38 -30 -31 -29 -30
-22 26 c-35 40 -29 63 33 126 l57 57 34 -36 34 -36 -35 -35z m184 40 c0 -4
-14 -21 -31 -40 l-30 -35 -37 37 -36 37 34 35 34 35 33 -32 c18 -18 33 -34 33
-37z m129 28 l34 -31 -37 -36 -36 -36 -37 34 -38 35 34 -37 35 -38 -34 -35
-34 -35 -35 35 -36 35 70 70 c38 38 72 70 75 70 3 0 20 -14 39 -31z m156 1
l29 -30 -34 -35 -34 -35 -35 34 -34 34 29 31 c16 17 34 31 40 31 5 0 23 -14
39 -30z m65 -41 c0 -5 -6 -7 -12 -3 -7 4 -5 -2 5 -13 22 -25 22 -40 -4 -82
l-21 -34 -31 31 -31 32 39 40 c39 40 55 49 55 29z m-456 -34 l34 -35 -34 -37
-34 -37 -36 36 -36 36 32 36 c18 20 35 36 37 36 2 0 19 -16 37 -35z m340 -34
l69 -69 -38 -16 c-77 -33 -105 -12 -54 40 41 42 27 45 -16 4 l-31 -30 -34 35
-34 35 34 35 c19 19 34 35 35 35 0 0 31 -31 69 -69z m-415 -45 c18 -19 30 -39
27 -45 -4 -6 -1 -9 7 -5 8 3 18 0 22 -6 6 -9 -4 -10 -35 -5 -48 8 -110 32
-110 42 0 9 42 53 50 53 3 0 21 -15 39 -34z m155 -2 c28 -33 28 -35 11 -54
-23 -25 -66 -26 -96 -1 l-24 20 34 35 c19 20 37 36 40 35 4 0 19 -16 35 -35z
m156 1 l34 -35 -24 -20 c-30 -26 -68 -25 -97 2 l-23 22 32 33 c17 18 35 33 38
33 3 0 21 -16 40 -35z m-106 -51 c25 -9 19 -24 -9 -24 -24 0 -32 10 -18 23 8
8 8 8 27 1z m156 -4 c0 -5 -7 -10 -16 -10 -8 0 -12 5 -9 10 3 6 10 10 16 10 5
0 9 -4 9 -10z m-590 -104 c20 -26 8 -61 -22 -64 -20 -2 -28 -9 -28 -23 0 -10
-7 -19 -15 -19 -11 0 -15 13 -15 53 0 30 3 57 7 60 12 12 60 7 73 -7z m143 -1
c-2 -5 -7 -11 -13 -11 -5 -1 -14 -2 -20 -3 -19 -2 -10 -21 10 -21 11 0 20 -4
20 -10 0 -5 -9 -10 -20 -10 -11 0 -20 -7 -20 -15 0 -9 9 -15 25 -15 14 0 25
-4 25 -10 0 -5 -18 -10 -40 -10 l-40 0 0 61 0 60 38 -3 c20 -2 36 -7 35 -13z
m137 0 c7 -8 9 -26 5 -44 -3 -17 -2 -32 4 -36 16 -9 13 -25 -4 -25 -8 0 -19 9
-25 20 -13 24 -28 26 -26 4 0 -9 -5 -19 -11 -21 -10 -3 -13 12 -13 56 0 61 0
61 29 61 16 0 34 -7 41 -15z m150 5 c0 -5 -9 -10 -20 -10 -27 0 -25 -26 3 -35
l22 -8 -22 -4 c-16 -3 -23 -11 -23 -29 0 -15 -6 -24 -15 -24 -12 0 -15 13 -15
60 l0 60 35 0 c19 0 35 -4 35 -10z m92 -37 c2 -35 7 -48 18 -48 10 0 17 14 20
44 7 65 30 66 30 2 0 -39 -4 -53 -19 -61 -48 -25 -81 1 -81 66 0 32 4 44 14
44 11 0 16 -14 18 -47z m177 10 l19 -38 22 38 c12 20 26 37 31 37 5 0 9 -27 9
-60 0 -33 -4 -60 -10 -60 -5 0 -10 17 -10 38 l0 37 -21 -34 -21 -34 -19 29
-19 29 0 -33 c0 -20 -4 -32 -11 -30 -9 3 -15 73 -10 111 3 18 22 4 40 -30z
m221 27 c0 -5 -9 -10 -20 -10 -11 0 -20 -7 -20 -15 0 -8 7 -15 15 -15 8 0 15
-4 15 -10 0 -5 -7 -10 -15 -10 -8 0 -15 -7 -15 -15 0 -8 9 -15 20 -15 11 0 20
-4 20 -10 0 -5 -16 -10 -35 -10 l-35 0 0 60 0 60 35 0 c19 0 35 -4 35 -10z
m-710 -180 c0 -5 -6 -7 -14 -4 -27 11 -29 -19 -3 -38 30 -22 34 -40 12 -58
-10 -9 -15 -9 -15 -1 0 6 5 11 10 11 18 0 10 28 -9 35 -32 10 -46 32 -31 50
14 17 50 20 50 5z m316 2 c24 -16 34 -50 23 -76 -23 -50 -99 -34 -99 21 0 45
43 77 76 55z m137 -50 c17 2 21 9 19 28 -2 20 0 22 10 12 16 -16 -1 -46 -30
-50 -12 -2 -23 -12 -25 -25 -2 -12 -4 5 -4 38 0 33 2 45 4 27 4 -27 8 -33 26
-30z m-366 -29 c-2 -16 -4 -3 -4 27 0 30 2 43 4 28 2 -16 2 -40 0 -55z m83 25
c0 -33 -4 -48 -9 -40 -4 8 -7 23 -6 35 1 12 3 30 4 40 3 39 11 13 11 -35z
m-320 -64 c0 -2 -9 0 -20 6 -11 6 -20 13 -20 16 0 2 9 0 20 -6 11 -6 20 -13
20 -16z m115 16 c3 -6 -1 -7 -9 -4 -18 7 -21 14 -7 14 6 0 13 -4 16 -10z m8
-84 c53 -32 97 -60 97 -62 0 -3 -15 3 -32 14 -18 11 -66 38 -105 62 -40 23
-73 44 -73 47 0 2 3 2 8 0 4 -2 51 -30 105 -61z m407 -51 c0 -2 -10 -9 -22
-15 -22 -11 -22 -10 -4 4 21 17 26 19 26 11z m-240 -51 c0 -2 -9 0 -20 6 -11
6 -20 13 -20 16 0 2 9 0 20 -6 11 -6 20 -13 20 -16z m190 21 c0 -2 -10 -9 -22
-15 -22 -11 -22 -10 -4 4 21 17 26 19 26 11z m-75 -45 c-3 -5 -12 -10 -18 -10
-7 0 -6 4 3 10 19 12 23 12 15 0z m-45 -10 c8 -5 11 -10 5 -10 -5 0 -17 5 -25
10 -8 5 -10 10 -5 10 6 0 17 -5 25 -10z"/>
<path d="M496 653 c-12 -12 -6 -33 9 -33 8 0 15 6 15 14 0 17 -14 28 -24 19z"/>
<path d="M775 650 c-4 -6 -3 -16 3 -22 6 -6 12 -6 17 2 4 6 3 16 -3 22 -6 6
-12 6 -17 -2z"/>
<path d="M1018 479 c-25 -14 -24 -65 2 -79 42 -23 82 25 55 66 -17 26 -30 29
-57 13z"/>
</g>
</svg>
